<svg width="263" height="142" viewBox="0 0 263 142" fill="none" xmlns="http://www.w3.org/2000/svg">
<path fill-rule="evenodd" clip-rule="evenodd" d="M213.837 1.00002C194.564 1.00002 176.754 3.8082 162.331 8.56177C201.314 19.1382 223.193 19.225 262.199 8.54003V7.57257C248.367 3.4211 231.733 1.00002 213.837 1.00002ZM262.199 15.6365C223.167 25.9718 201.283 26.6315 162.251 15.6365V52.4496V56.8849C201.284 66.5489 223.167 66.6348 262.199 56.8849V63.356C223.167 72.7804 201.283 73.3819 162.251 63.356L162.251 90.1497H262.199V50.2319L262.199 15.6365ZM262.199 134.011V90.1498H162.251L162.251 95.9157C201.284 105.58 223.167 105.666 262.199 95.9157V102.387C223.167 111.811 201.283 112.413 162.251 102.387L162.251 135.027C176.084 139.178 192.718 141.599 210.613 141.599C229.922 141.599 247.762 138.781 262.199 134.011Z" fill="white"/>
<path fill-rule="evenodd" clip-rule="evenodd" d="M12 0.0708618C5.37258 0.0708618 0 5.44345 0 12.0709V21.0453C0 27.6727 5.37258 33.0453 12 33.0453H136.408C143.035 33.0453 148.408 27.6727 148.408 21.0453V12.0709C148.408 5.44345 143.035 0.0708618 136.408 0.0708618H12ZM11.9277 14.7262C10.9159 14.7262 10.0958 15.5463 10.0958 16.5581C10.0958 17.5698 10.9159 18.39 11.9277 18.39H33.5032C34.515 18.39 35.3352 17.5698 35.3352 16.5581C35.3352 15.5463 34.515 14.7262 33.5032 14.7262H11.9277ZM44.9261 16.5581C44.9261 15.5463 45.7463 14.7262 46.758 14.7262H68.3336C69.3453 14.7262 70.1655 15.5463 70.1655 16.5581C70.1655 17.5698 69.3453 18.39 68.3336 18.39H46.758C45.7463 18.39 44.9261 17.5698 44.9261 16.5581ZM132.759 21.1379C135.547 21.1379 137.807 19.0874 137.807 16.5581C137.807 14.0287 135.547 11.9783 132.759 11.9783C129.971 11.9783 127.711 14.0287 127.711 16.5581C127.711 19.0874 129.971 21.1379 132.759 21.1379Z" fill="white"/>
<path fill-rule="evenodd" clip-rule="evenodd" d="M12 78.3857C5.37259 78.3857 7.62939e-06 83.7583 7.62939e-06 90.3857V99.3602C7.62939e-06 105.988 5.37259 111.36 12 111.36H136.408C143.035 111.36 148.408 105.988 148.408 99.3602V90.3857C148.408 83.7583 143.035 78.3857 136.408 78.3857H12ZM11.9277 93.041C10.9159 93.041 10.0958 93.8612 10.0958 94.873C10.0958 95.8847 10.9159 96.7049 11.9277 96.7049H33.5032C34.515 96.7049 35.3352 95.8847 35.3352 94.873C35.3352 93.8612 34.515 93.041 33.5032 93.041H11.9277ZM44.9261 94.873C44.9261 93.8612 45.7463 93.041 46.758 93.041H68.3336C69.3453 93.041 70.1655 93.8612 70.1655 94.873C70.1655 95.8847 69.3453 96.7049 68.3336 96.7049H46.758C45.7463 96.7049 44.9261 95.8847 44.9261 94.873ZM132.759 99.4527C135.547 99.4527 137.807 97.4023 137.807 94.873C137.807 92.3436 135.547 90.2932 132.759 90.2932C129.971 90.2932 127.711 92.3436 127.711 94.873C127.711 97.4023 129.971 99.4527 132.759 99.4527Z" fill="white"/>
<path fill-rule="evenodd" clip-rule="evenodd" d="M12 38.5416C5.37259 38.5416 7.62939e-06 43.9142 7.62939e-06 50.5416V59.5161C7.62939e-06 66.1435 5.37259 71.5161 12 71.5161H136.408C143.035 71.5161 148.408 66.1435 148.408 59.5161V50.5416C148.408 43.9142 143.035 38.5416 136.408 38.5416H12ZM11.9277 53.1969C10.9159 53.1969 10.0958 54.0171 10.0958 55.0288C10.0958 56.0406 10.9159 56.8608 11.9277 56.8608H33.5032C34.515 56.8608 35.3352 56.0406 35.3352 55.0288C35.3352 54.0171 34.515 53.1969 33.5032 53.1969H11.9277ZM44.9261 55.0288C44.9261 54.0171 45.7463 53.1969 46.758 53.1969H68.3336C69.3453 53.1969 70.1655 54.0171 70.1655 55.0288C70.1655 56.0406 69.3453 56.8608 68.3336 56.8608H46.758C45.7463 56.8608 44.9261 56.0406 44.9261 55.0288ZM132.759 59.6086C135.547 59.6086 137.807 57.5582 137.807 55.0288C137.807 52.4995 135.547 50.4491 132.759 50.4491C129.971 50.4491 127.711 52.4995 127.711 55.0288C127.711 57.5582 129.971 59.6086 132.759 59.6086Z" fill="white"/>
<rect x="71.1751" y="111.36" width="5.04788" height="24.7308" fill="white"/>
<rect x="12.6197" y="136.091" width="123.168" height="4.57978" rx="2.28989" fill="white"/>
</svg>
