<svg width="257" height="243" viewBox="0 0 257 243" fill="none" xmlns="http://www.w3.org/2000/svg">
<path fill-rule="evenodd" clip-rule="evenodd" d="M0 16C0 7.16344 7.16344 0 16 0H146C154.837 0 162 7.16344 162 16V186C162 194.837 154.837 202 146 202H16C7.16344 202 0 194.837 0 186V16ZM12 31C12 22.1634 19.1634 15 28 15H134C142.837 15 150 22.1634 150 31V162C150 170.837 142.837 178 134 178H28C19.1634 178 12 170.837 12 162V31ZM81.5 195C84.5376 195 87 192.538 87 189.5C87 186.462 84.5376 184 81.5 184C78.4624 184 76 186.462 76 189.5C76 192.538 78.4624 195 81.5 195Z" fill="#C4C4C4"/>
<rect x="12" y="15" width="138" height="163" rx="16" fill="white"/>
<path fill-rule="evenodd" clip-rule="evenodd" d="M127 54C120.373 54 115 59.3726 115 66V214C115 220.627 120.373 226 127 226H198C204.627 226 210 220.627 210 214V66C210 59.3726 204.627 54 198 54H127ZM129 61C125.686 61 123 63.6863 123 67V212C123 215.314 125.686 218 129 218H195C198.314 218 201 215.314 201 212V67C201 63.6863 198.314 61 195 61H129Z" fill="#C4C4C4"/>
<rect x="123" y="61" width="78" height="157" rx="6" fill="white"/>
<path fill-rule="evenodd" clip-rule="evenodd" d="M242.25 94H247C250.866 94 254 97.134 254 101V233C254 236.866 250.866 240 247 240H188C184.134 240 181 236.866 181 233V101C181 97.134 184.134 94 188 94H192.979L205.889 107H230.333L242.25 94ZM190 91H245H247C252.523 91 257 95.4772 257 101V233C257 238.523 252.523 243 247 243H188C182.477 243 178 238.523 178 233V101C178 95.4772 182.477 91 188 91H190Z" fill="#C4C4C4"/>
<rect x="179.5" y="92.5" width="76" height="149" rx="8.5" fill="white" stroke="#C4C4C4" stroke-width="3"/>
<path d="M190 91H245L230.333 107H205.889L190 91Z" fill="#C4C4C4"/>
</svg>
